<svg height="436" viewBox="0 0 161.169 28.077" width="2500" xmlns="http://www.w3.org/2000/svg"><path d="m31.811 0-5.747 22.33 22.33 5.747 5.747-22.33zm74.111 2.5v23.06h23.058v-23.06zm25.814 0 9.006 11.39-9.006 11.669h11.08l3.528-4.581 3.653 4.58h11.172l-9.284-11.73 8.727-11.327h-11.08l-3.25 4.24-3.404-4.24zm-131.736.002v23.058h10.214v-8.542c2.754 0 4.054 2.414 4.487 8.542h10.585c-.464-4.426-1.98-8.232-4.456-11.049 1.702-1.176 2.63-2.972 2.63-5.107 0-3.436-2.568-6.902-8.387-6.902zm56.522 0v23.058h16.094c5.386 0 7.893-2.816 7.893-6.376 0-1.98-.712-3.745-3.621-5.292 2.321-1.33 3.002-3.064 3.002-4.953 0-2.661-1.486-6.437-8.945-6.437zm27.116 0v23.058h19.158v-5.787h-8.946v-17.271zm-16.902 4.642h.62c2.073 0 2.692.959 2.692 2.228 0 1.64-.836 2.26-3.064 2.26h-.248zm-56.522.092h.619c1.919 0 2.414 1.3 2.414 2.291 0 1.486-.898 2.166-2.755 2.166h-.278zm28.27 4.062 4.358 1.12-1.122 4.36-4.358-1.122zm76.716.48h4.5v4.501h-4.5zm-48.464 3.722h.712c2.135 0 2.847 1.083 2.847 2.6 0 1.733-.898 2.384-3.25 2.384h-.309z" fill="#e2231a"/></svg>